<svg xmlns="http://www.w3.org/2000/svg" style="display: none;">
  <symbol id="target-white" viewBox="0 0 640 640">
    <defs>
      <path d="M349.8 116.72L356.79 117.87L363.7 119.24L370.53 120.85L377.26 122.69L383.9 124.74L390.44 127.02L396.88 129.5L403.21 132.2L409.43 135.1L415.54 138.2L421.52 141.49L427.38 144.98L433.12 148.66L438.72 152.52L444.18 156.56L449.5 160.77L454.67 165.16L459.7 169.71L464.57 174.43L469.29 179.3L473.84 184.32L478.22 189.5L482.44 194.82L486.48 200.28L490.34 205.88L494.02 211.61L497.5 217.48L500.8 223.46L503.9 229.56L506.8 235.78L509.5 242.12L511.98 248.55L514.26 255.1L516.31 261.74L518.15 268.47L519.76 275.3L521.13 282.21L522.28 289.2L523.18 296.27L570 296.27L570 341.73L523.18 341.73L522.28 348.8L521.13 355.79L519.76 362.7L518.15 369.53L516.31 376.26L514.26 382.9L511.98 389.44L509.5 395.88L506.8 402.21L503.9 408.43L500.8 414.54L497.5 420.52L494.02 426.38L490.34 432.12L486.48 437.72L482.44 443.18L478.22 448.5L473.84 453.67L469.29 458.7L464.57 463.57L459.7 468.29L454.67 472.84L449.5 477.22L444.18 481.44L438.72 485.48L433.12 489.34L427.38 493.02L421.52 496.5L415.54 499.8L409.43 502.9L403.21 505.8L396.88 508.5L390.44 510.98L383.9 513.26L377.26 515.31L370.53 517.15L363.7 518.76L356.79 520.13L349.8 521.28L342.73 522.18L342.73 569L297.27 569L297.27 522.18L290.2 521.28L283.21 520.13L276.3 518.76L269.47 517.15L262.74 515.31L256.1 513.26L249.56 510.98L243.12 508.5L236.79 505.8L230.57 502.9L224.46 499.8L218.48 496.5L212.62 493.02L206.88 489.34L201.28 485.48L195.82 481.44L190.5 477.22L185.33 472.84L180.3 468.29L175.43 463.57L170.71 458.7L166.16 453.67L161.77 448.5L157.56 443.18L153.52 437.72L149.66 432.12L145.98 426.38L142.49 420.52L139.2 414.54L136.1 408.43L133.2 402.21L130.5 395.88L128.02 389.44L125.74 382.9L123.69 376.26L121.85 369.53L120.24 362.7L118.87 355.79L117.72 348.8L116.82 341.73L70 341.73L70 296.27L116.82 296.27L117.72 289.2L118.87 282.21L120.24 275.3L121.85 268.47L123.69 261.74L125.74 255.1L128.02 248.55L130.5 242.12L133.2 235.78L136.1 229.56L139.2 223.46L142.49 217.48L145.98 211.61L149.66 205.88L153.52 200.28L157.56 194.82L161.77 189.5L166.16 184.32L170.71 179.3L175.43 174.43L180.3 169.71L185.32 165.16L190.5 160.77L195.82 156.56L201.28 152.52L206.88 148.66L212.61 144.98L218.48 141.49L224.46 138.2L230.56 135.1L236.78 132.2L243.12 129.5L249.55 127.02L256.1 124.74L262.74 122.69L269.47 120.85L276.3 119.24L283.21 117.87L290.2 116.72L297.27 115.82L297.27 69L342.73 69L342.73 115.82L349.8 116.72ZM306.96 160.44L300.54 161.09L294.2 161.99L287.94 163.14L281.78 164.53L275.7 166.16L269.72 168.02L263.85 170.11L258.08 172.41L252.43 174.94L246.9 177.67L241.49 180.61L236.21 183.75L231.06 187.09L226.05 190.61L221.19 194.32L216.48 198.21L211.92 202.28L207.51 206.51L203.28 210.92L199.21 215.48L195.32 220.19L191.61 225.05L188.09 230.06L184.75 235.21L181.61 240.49L178.67 245.9L175.94 251.43L173.41 257.08L171.11 262.85L169.02 268.72L167.16 274.7L165.53 280.78L164.14 286.94L162.99 293.2L162.09 299.54L161.44 305.96L161.04 312.44L160.91 319L161.04 325.56L161.44 332.04L162.09 338.46L162.99 344.8L164.14 351.06L165.53 357.22L167.16 363.3L169.02 369.28L171.11 375.15L173.41 380.92L175.94 386.57L178.67 392.1L181.61 397.51L184.75 402.79L188.09 407.94L191.61 412.95L195.32 417.81L199.21 422.52L203.28 427.08L207.51 431.49L211.92 435.72L216.48 439.79L221.19 443.68L226.05 447.39L231.06 450.91L236.21 454.25L241.49 457.39L246.9 460.33L252.43 463.06L258.08 465.59L263.85 467.89L269.72 469.98L275.7 471.84L281.78 473.47L287.94 474.86L294.2 476.01L300.54 476.91L306.96 477.56L313.44 477.96L320 478.09L326.56 477.96L333.04 477.56L339.46 476.91L345.8 476.01L352.06 474.86L358.22 473.47L364.3 471.84L370.28 469.98L376.15 467.89L381.92 465.59L387.57 463.06L393.1 460.33L398.51 457.39L403.79 454.25L408.94 450.91L413.95 447.39L418.81 443.68L423.52 439.79L428.08 435.72L432.49 431.49L436.72 427.09L440.79 422.53L444.68 417.81L448.39 412.95L451.91 407.94L455.25 402.79L458.39 397.51L461.33 392.1L464.06 386.57L466.59 380.92L468.89 375.15L470.98 369.28L472.84 363.3L474.47 357.22L475.86 351.06L477.01 344.8L477.91 338.46L478.56 332.04L478.96 325.56L479.09 319L478.96 312.44L478.56 305.96L477.91 299.54L477.01 293.2L475.86 286.94L474.47 280.78L472.84 274.7L470.98 268.72L468.89 262.85L466.59 257.08L464.06 251.43L461.33 245.9L458.39 240.49L455.25 235.21L451.91 230.06L448.39 225.05L444.68 220.19L440.79 215.47L436.72 210.91L432.49 206.51L428.08 202.28L423.52 198.21L418.81 194.32L413.95 190.61L408.94 187.09L403.79 183.75L398.51 180.61L393.1 177.67L387.57 174.94L381.92 172.41L376.15 170.11L370.28 168.02L364.3 166.16L358.22 164.53L352.06 163.14L345.8 161.99L339.46 161.09L333.04 160.44L326.56 160.04L320 159.91L313.44 160.04L306.96 160.44Z" id="d1BExP2h6k"></path>
      <path d="M320 352.5C337.96 352.5 352.5 337.96 352.5 320C352.5 302.04 337.96 287.5 320 287.5C302.04 287.5 287.5 302.04 287.5 320C287.5 337.96 302.04 352.5 320 352.5Z" id="a1i28NreUS"></path>
      <path d="M320 352.5C337.96 352.5 352.5 337.96 352.5 320C352.5 302.04 337.96 287.5 320 287.5C302.04 287.5 287.5 302.04 287.5 320C287.5 337.96 302.04 352.5 320 352.5Z" id="b2jpmIU8RV"></path>
      <path d="M346.21 1.06L359.1 2.38L371.84 4.2L384.41 6.51L396.81 9.32L409.02 12.6L421.04 16.34L432.85 20.54L444.44 25.19L455.81 30.27L466.94 35.77L477.82 41.69L488.44 48.01L498.79 54.72L508.87 61.82L518.65 69.29L528.14 77.12L537.32 85.3L546.17 93.83L554.7 102.68L562.88 111.86L570.71 121.35L578.18 131.13L585.28 141.21L591.99 151.56L598.31 162.18L604.23 173.06L609.73 184.19L614.81 195.56L619.46 207.15L623.66 218.96L627.4 230.98L630.68 243.19L633.49 255.59L635.8 268.16L637.62 280.9L638.94 293.79L639.73 306.83L640 320L639.73 333.17L638.94 346.21L637.62 359.1L635.8 371.84L633.49 384.41L630.68 396.81L627.4 409.02L623.66 421.04L619.46 432.85L614.81 444.44L609.73 455.81L604.23 466.94L598.31 477.82L591.99 488.44L585.28 498.79L578.18 508.87L570.71 518.65L562.88 528.14L554.7 537.32L546.17 546.17L537.32 554.7L528.14 562.88L518.65 570.71L508.87 578.18L498.79 585.28L488.44 591.99L477.82 598.31L466.94 604.23L455.81 609.73L444.44 614.81L432.85 619.46L421.04 623.66L409.02 627.4L396.81 630.68L384.41 633.49L371.84 635.8L359.1 637.62L346.21 638.94L333.17 639.73L320 640L306.83 639.73L293.79 638.94L280.9 637.62L268.16 635.8L255.59 633.49L243.19 630.68L230.98 627.4L218.96 623.66L207.15 619.46L195.56 614.81L184.19 609.73L173.06 604.23L162.18 598.31L151.56 591.99L141.21 585.28L131.13 578.18L121.35 570.71L111.86 562.88L102.68 554.7L93.83 546.17L85.3 537.32L77.12 528.14L69.29 518.65L61.82 508.87L54.72 498.79L48.01 488.44L41.69 477.82L35.77 466.94L30.27 455.81L25.19 444.44L20.54 432.85L16.34 421.04L12.6 409.02L9.32 396.81L6.51 384.41L4.2 371.84L2.38 359.1L1.06 346.21L0.27 333.17L0 320L0.27 306.83L1.06 293.79L2.38 280.9L4.2 268.16L6.51 255.59L9.32 243.19L12.6 230.98L16.34 218.96L20.54 207.15L25.19 195.56L30.27 184.19L35.77 173.06L41.69 162.18L48.01 151.56L54.72 141.21L61.82 131.13L69.29 121.35L77.12 111.86L85.3 102.68L93.83 93.83L102.68 85.3L111.86 77.12L121.35 69.29L131.13 61.82L141.21 54.72L151.56 48.01L162.18 41.69L173.06 35.77L184.19 30.27L195.56 25.19L207.15 20.54L218.96 16.34L230.98 12.6L243.19 9.32L255.59 6.51L268.16 4.2L280.9 2.38L293.79 1.06L306.83 0.27L320 0L333.17 0.27L346.21 1.06ZM303.25 116.18L295.01 117.02L286.86 118.18L278.83 119.66L270.9 121.45L263.1 123.55L255.42 125.94L247.87 128.62L240.46 131.59L233.2 134.84L226.09 138.35L219.13 142.13L212.34 146.17L205.73 150.46L199.29 155L193.04 159.77L186.97 164.78L181.11 170L175.45 175.45L170 181.11L164.78 186.97L159.77 193.04L155 199.29L150.46 205.73L146.17 212.34L142.13 219.13L138.35 226.09L134.84 233.2L131.59 240.46L128.62 247.87L125.94 255.42L123.55 263.1L121.45 270.9L119.66 278.83L118.18 286.86L117.02 295.01L116.18 303.25L115.67 311.58L115.5 320L115.67 328.42L116.18 336.75L117.02 344.99L118.18 353.14L119.66 361.17L121.45 369.1L123.55 376.9L125.94 384.58L128.62 392.13L131.59 399.54L134.84 406.8L138.35 413.91L142.13 420.87L146.17 427.66L150.46 434.27L155 440.71L159.77 446.96L164.78 453.03L170 458.89L175.45 464.55L181.11 470L186.97 475.22L193.04 480.23L199.29 485L205.73 489.54L212.34 493.83L219.13 497.87L226.09 501.65L233.2 505.16L240.46 508.41L247.87 511.38L255.42 514.06L263.1 516.45L270.9 518.55L278.83 520.34L286.86 521.82L295.01 522.98L303.25 523.82L311.58 524.33L320 524.5L328.42 524.33L336.75 523.82L344.99 522.98L353.14 521.82L361.17 520.34L369.1 518.55L376.9 516.45L384.58 514.06L392.13 511.38L399.54 508.41L406.8 505.16L413.91 501.65L420.87 497.87L427.66 493.83L434.27 489.54L440.71 485L446.96 480.23L453.03 475.22L458.89 470L464.55 464.55L470 458.89L475.22 453.03L480.23 446.96L485 440.71L489.54 434.27L493.83 427.66L497.87 420.87L501.65 413.91L505.16 406.8L508.41 399.54L511.38 392.13L514.06 384.58L516.45 376.9L518.55 369.1L520.34 361.17L521.82 353.14L522.98 344.99L523.82 336.75L524.33 328.42L524.5 320L524.33 311.58L523.82 303.25L522.98 295.01L521.82 286.86L520.34 278.83L518.55 270.9L516.45 263.1L514.06 255.42L511.38 247.87L508.41 240.46L505.16 233.2L501.65 226.09L497.87 219.13L493.83 212.34L489.54 205.73L485 199.29L480.23 193.04L475.22 186.97L470 181.11L464.55 175.45L458.89 170L453.03 164.78L446.96 159.77L440.71 155L434.27 150.46L427.66 146.17L420.87 142.13L413.91 138.35L406.8 134.84L399.54 131.59L392.13 128.62L384.58 125.94L376.9 123.55L369.1 121.45L361.17 119.66L353.14 118.18L344.99 117.02L336.75 116.18L328.42 115.67L320 115.5L311.58 115.67L303.25 116.18Z" id="a13VOp1LzU"></path>
      <path d="M349.8 117.72L356.79 118.87L363.7 120.24L370.53 121.85L377.26 123.69L383.9 125.74L390.44 128.02L396.88 130.5L403.21 133.2L409.43 136.1L415.54 139.2L421.52 142.49L427.38 145.98L433.12 149.66L438.72 153.52L444.18 157.56L449.5 161.77L454.67 166.16L459.7 170.71L464.57 175.43L469.29 180.3L473.84 185.32L478.22 190.5L482.44 195.82L486.48 201.28L490.34 206.88L494.02 212.61L497.5 218.48L500.8 224.46L503.9 230.56L506.8 236.78L509.5 243.12L511.98 249.55L514.26 256.1L516.31 262.74L518.15 269.47L519.76 276.3L521.13 283.21L522.28 290.2L523.18 297.27L570 297.27L570 342.73L523.18 342.73L522.28 349.8L521.13 356.79L519.76 363.7L518.15 370.53L516.31 377.26L514.26 383.9L511.98 390.44L509.5 396.88L506.8 403.21L503.9 409.43L500.8 415.54L497.5 421.52L494.02 427.38L490.34 433.12L486.48 438.72L482.44 444.18L478.22 449.5L473.84 454.67L469.29 459.7L464.57 464.57L459.7 469.29L454.67 473.84L449.5 478.22L444.18 482.44L438.72 486.48L433.12 490.34L427.38 494.02L421.52 497.5L415.54 500.8L409.43 503.9L403.21 506.8L396.88 509.5L390.44 511.98L383.9 514.26L377.26 516.31L370.53 518.15L363.7 519.76L356.79 521.13L349.8 522.28L342.73 523.18L342.73 570L297.27 570L297.27 523.18L290.2 522.28L283.21 521.13L276.3 519.76L269.47 518.15L262.74 516.31L256.1 514.26L249.56 511.98L243.12 509.5L236.79 506.8L230.57 503.9L224.46 500.8L218.48 497.5L212.62 494.02L206.88 490.34L201.28 486.48L195.82 482.44L190.5 478.22L185.33 473.84L180.3 469.29L175.43 464.57L170.71 459.7L166.16 454.67L161.77 449.5L157.56 444.18L153.52 438.72L149.66 433.12L145.98 427.38L142.49 421.52L139.2 415.54L136.1 409.43L133.2 403.21L130.5 396.88L128.02 390.44L125.74 383.9L123.69 377.26L121.85 370.53L120.24 363.7L118.87 356.79L117.72 349.8L116.82 342.73L70 342.73L70 297.27L116.82 297.27L117.72 290.2L118.87 283.21L120.24 276.3L121.85 269.47L123.69 262.74L125.74 256.1L128.02 249.55L130.5 243.12L133.2 236.78L136.1 230.56L139.2 224.46L142.49 218.48L145.98 212.61L149.66 206.88L153.52 201.28L157.56 195.82L161.77 190.5L166.16 185.32L170.71 180.3L175.43 175.43L180.3 170.71L185.32 166.16L190.5 161.77L195.82 157.56L201.28 153.52L206.88 149.66L212.61 145.98L218.48 142.49L224.46 139.2L230.56 136.1L236.78 133.2L243.12 130.5L249.55 128.02L256.1 125.74L262.74 123.69L269.47 121.85L276.3 120.24L283.21 118.87L290.2 117.72L297.27 116.82L297.27 70L342.73 70L342.73 116.82L349.8 117.72ZM306.96 161.44L300.54 162.09L294.2 162.99L287.94 164.14L281.78 165.53L275.7 167.16L269.72 169.02L263.85 171.11L258.08 173.41L252.43 175.94L246.9 178.67L241.49 181.61L236.21 184.75L231.06 188.09L226.05 191.61L221.19 195.32L216.48 199.21L211.92 203.28L207.51 207.51L203.28 211.92L199.21 216.48L195.32 221.19L191.61 226.05L188.09 231.06L184.75 236.21L181.61 241.49L178.67 246.9L175.94 252.43L173.41 258.08L171.11 263.85L169.02 269.72L167.16 275.7L165.53 281.78L164.14 287.94L162.99 294.2L162.09 300.54L161.44 306.96L161.04 313.44L160.91 320L161.04 326.56L161.44 333.04L162.09 339.46L162.99 345.8L164.14 352.06L165.53 358.22L167.16 364.3L169.02 370.28L171.11 376.15L173.41 381.92L175.94 387.57L178.67 393.1L181.61 398.51L184.75 403.79L188.09 408.94L191.61 413.95L195.32 418.81L199.21 423.52L203.28 428.08L207.51 432.49L211.92 436.72L216.48 440.79L221.19 444.68L226.05 448.39L231.06 451.91L236.21 455.25L241.49 458.39L246.9 461.33L252.43 464.06L258.08 466.59L263.85 468.89L269.72 470.98L275.7 472.84L281.78 474.47L287.94 475.86L294.2 477.01L300.54 477.91L306.96 478.56L313.44 478.96L320 479.09L326.56 478.96L333.04 478.56L339.46 477.91L345.8 477.01L352.06 475.86L358.22 474.47L364.3 472.84L370.28 470.98L376.15 468.89L381.92 466.59L387.57 464.06L393.1 461.33L398.51 458.39L403.79 455.25L408.94 451.91L413.95 448.39L418.81 444.68L423.52 440.79L428.08 436.72L432.49 432.49L436.72 428.09L440.79 423.53L444.68 418.81L448.39 413.95L451.91 408.94L455.25 403.79L458.39 398.51L461.33 393.1L464.06 387.57L466.59 381.92L468.89 376.15L470.98 370.28L472.84 364.3L474.47 358.22L475.86 352.06L477.01 345.8L477.91 339.46L478.56 333.04L478.96 326.56L479.09 320L478.96 313.44L478.56 306.96L477.91 300.54L477.01 294.2L475.86 287.94L474.47 281.78L472.84 275.7L470.98 269.72L468.89 263.85L466.59 258.08L464.06 252.43L461.33 246.9L458.39 241.49L455.25 236.21L451.91 231.06L448.39 226.05L444.68 221.19L440.79 216.47L436.72 211.91L432.49 207.51L428.08 203.28L423.52 199.21L418.81 195.32L413.95 191.61L408.94 188.09L403.79 184.75L398.51 181.61L393.1 178.67L387.57 175.94L381.92 173.41L376.15 171.11L370.28 169.02L364.3 167.16L358.22 165.53L352.06 164.14L345.8 162.99L339.46 162.09L333.04 161.44L326.56 161.04L320 160.91L313.44 161.04L306.96 161.44Z" id="a9qwDdWpPS"></path>
    </defs>
    <g>
      <g>
        <g>
          <use xlink:href="#d1BExP2h6k" opacity="1" fill="#000000" fill-opacity="0"></use>
            <g>
              <use xlink:href="#d1BExP2h6k" opacity="1" fill-opacity="0" stroke="#000000" stroke-width="1" stroke-opacity="0"></use>
            </g>
          </g>
        <g>
        <use xlink:href="#a1i28NreUS" opacity="1" fill="#000000" fill-opacity="0.5"></use>
        <g>
          <use xlink:href="#a1i28NreUS" opacity="1" fill-opacity="0" stroke="#000000" stroke-width="1" stroke-opacity="0"></use>
        </g>
      </g>
      <g>
        <use xlink:href="#b2jpmIU8RV" opacity="1" fill="#000000" fill-opacity="0"></use>
        <g>
          <use xlink:href="#b2jpmIU8RV" opacity="1" fill-opacity="0" stroke="#000000" stroke-width="1" stroke-opacity="0"></use>
        </g>
      </g>
      <g>
        <use xlink:href="#a13VOp1LzU" opacity="1" fill="#000000" fill-opacity="0.5"></use>
        <g>
          <use xlink:href="#a13VOp1LzU" opacity="1" fill-opacity="0" stroke="#000000" stroke-width="1" stroke-opacity="0"></use>
        </g>
      </g>
      <g>
        <use xlink:href="#a9qwDdWpPS" opacity="1" fill="#ffffff" fill-opacity="1"></use>
        <g>
          <use xlink:href="#a9qwDdWpPS" opacity="1" fill-opacity="0" stroke="#000000" stroke-width="1" stroke-opacity="0"></use>
        </g>
      </g>
    </g>
  </g>
  </symbol>
</svg>